<svg xmlns="http://www.w3.org/2000/svg" xmlns:xlink="http://www.w3.org/1999/xlink" id="Layer_2" data-name="Layer 2" viewBox="0 0 1003.54 635.27"><defs><style>      .cls-1 {        fill: none;      }      .cls-2 {        clip-path: url(#clippath);      }      .cls-3 {        fill: #006b72;      }      .cls-4 {        fill: #fff;      }      .cls-5 {        fill: #009ba7;      }    </style><clipPath id="clippath"><rect class="cls-1" width="1003.54" height="635.27"></rect></clipPath></defs><g id="Layer_1-2" data-name="Layer 1"><g class="cls-2"><polygon class="cls-3" points="175.51 539.82 235.1 539.82 121.35 635.27 61.76 635.27 175.51 539.82"></polygon><polygon class="cls-3" points="310.84 521.83 370.43 521.83 234.64 635.78 175.05 635.78 310.84 521.83"></polygon><polygon class="cls-5" points="265.88 238.6 204.41 174.98 142.94 238.6 174.23 238.6 174.23 539.82 179.62 539.82 204.41 539.82 229.21 539.82 234.6 539.82 234.6 238.6 265.88 238.6"></polygon><polygon class="cls-5" points="402.48 220.61 341.01 156.98 279.54 220.61 310.83 220.61 310.83 521.83 316.22 521.83 341.01 521.83 365.81 521.83 371.2 521.83 371.2 220.61 402.48 220.61"></polygon><polygon class="cls-5" points="545.82 196 484.35 132.38 422.88 196 454.17 196 454.17 497.22 459.56 497.22 484.35 497.22 509.15 497.22 514.53 497.22 514.53 196 545.82 196"></polygon><polygon class="cls-5" points="693.16 170.37 631.69 106.75 570.22 170.37 601.51 170.37 601.51 471.59 606.9 471.59 631.69 471.59 656.49 471.59 661.88 471.59 661.88 170.37 693.16 170.37"></polygon><polygon class="cls-5" points="835.71 142.62 774.24 78.99 712.77 142.62 744.05 142.62 744.05 443.84 749.44 443.84 774.24 443.84 799.03 443.84 804.42 443.84 804.42 142.62 835.71 142.62"></polygon><polygon class="cls-5" points="919.55 45.32 858.08 108.94 889.37 108.94 889.37 410.16 894.76 410.16 919.55 410.16 944.35 410.16 949.74 410.16 949.74 108.94 981.02 108.94 919.56 45.32 919.55 45.32"></polygon><polygon class="cls-3" points="455.43 497.22 515.02 497.22 317.68 662.8 258.09 662.8 455.43 497.22"></polygon><polygon class="cls-3" points="601.72 471.59 661.31 471.59 413.13 679.84 353.54 679.84 601.72 471.59"></polygon><polygon class="cls-3" points="745.24 443.84 804.83 443.84 543.88 662.8 484.29 662.8 745.24 443.84"></polygon><polygon class="cls-3" points="890.01 410.16 949.6 410.16 614.45 691.39 554.86 691.39 890.01 410.16"></polygon><g><path class="cls-4" d="m193.56,431.75c-.15-.88-.27-2.04-.27-3.52,0-1.81.42-3.14,1.18-3.98.67-.76,1.71-1.24,2.97-1.24s2.29.38,3.03,1.09c1.03.99,1.56,2.55,1.56,4.34,0,.55-.02,1.05-.13,1.47h5.69v1.83h-14.02Zm6.84-1.83c.11-.4.15-.91.15-1.52,0-2.21-1.09-3.56-3.01-3.56s-2.8,1.35-2.8,3.35c0,.8.06,1.41.15,1.73h5.52Z"></path><path class="cls-4" d="m205.14,414c.88,0,1.75-.04,2.44-.15v1.66l-1.28.15v.06c.8.57,1.52,1.66,1.52,3.12,0,2.06-1.45,3.12-2.93,3.12-2.46,0-3.81-2.19-3.79-6.13h-.21c-.82,0-2.36.23-2.34,2.32,0,.97.27,1.96.76,2.67l-1.24.42c-.53-.84-.88-2.08-.88-3.37,0-3.12,2.13-3.87,4.15-3.87h3.81Zm-2.76,1.79c-.04,2.02.32,4.32,2.3,4.32,1.22,0,1.77-.8,1.77-1.73,0-1.35-.84-2.21-1.71-2.51-.21-.06-.42-.08-.59-.08h-1.77Z"></path><path class="cls-4" d="m205.71,411.26c.34-.57.72-1.54.72-2.46,0-1.33-.65-1.96-1.52-1.96s-1.35.53-1.85,1.87c-.67,1.85-1.66,2.72-2.88,2.72-1.64,0-2.99-1.35-2.99-3.52,0-1.03.27-1.94.63-2.48l1.35.44c-.25.4-.61,1.14-.61,2.08,0,1.1.63,1.68,1.39,1.68.84,0,1.22-.59,1.75-1.92.65-1.75,1.54-2.67,3.05-2.67,1.81,0,3.07,1.41,3.07,3.79,0,1.12-.29,2.15-.72,2.86l-1.39-.44Z"></path><path class="cls-4" d="m205.71,402.92c.34-.57.72-1.54.72-2.46,0-1.33-.65-1.96-1.52-1.96s-1.35.53-1.85,1.87c-.67,1.85-1.66,2.72-2.88,2.72-1.64,0-2.99-1.35-2.99-3.52,0-1.03.27-1.94.63-2.48l1.35.44c-.25.4-.61,1.14-.61,2.08,0,1.1.63,1.68,1.39,1.68.84,0,1.22-.59,1.75-1.92.65-1.75,1.54-2.67,3.05-2.67,1.81,0,3.07,1.41,3.07,3.79,0,1.12-.29,2.15-.72,2.86l-1.39-.44Z"></path><path class="cls-4" d="m200.57,389.86c-1.2,0-2.23.02-3.18.08v-1.62l2.02-.08v-.06c-1.37-.46-2.23-1.6-2.23-2.84,0-.19.02-.34.04-.51h1.75c-.04.19-.04.38-.04.63,0,1.31.97,2.23,2.36,2.49.25.04.57.06.86.06h5.43v1.85h-7.01Z"></path><path class="cls-4" d="m205.14,375.92c.88,0,1.75-.04,2.44-.15v1.66l-1.28.15v.06c.8.57,1.52,1.66,1.52,3.12,0,2.06-1.45,3.12-2.93,3.12-2.46,0-3.81-2.19-3.79-6.13h-.21c-.82,0-2.36.23-2.34,2.32,0,.97.27,1.96.76,2.67l-1.24.42c-.53-.84-.88-2.08-.88-3.37,0-3.12,2.13-3.87,4.15-3.87h3.81Zm-2.76,1.79c-.04,2.02.32,4.32,2.3,4.32,1.22,0,1.77-.8,1.77-1.73,0-1.35-.84-2.21-1.71-2.51-.21-.06-.42-.08-.59-.08h-1.77Z"></path><path class="cls-4" d="m194.95,370.76h2.44v-2.65h1.41v2.65h5.5c1.26,0,1.98-.36,1.98-1.39,0-.5-.04-.8-.13-1.07l1.41-.08c.13.36.25.93.25,1.64,0,.86-.29,1.56-.78,2-.57.5-1.47.72-2.67.72h-5.56v1.58h-1.41v-1.58h-1.9l-.55-1.81Z"></path><path class="cls-4" d="m202.83,365.1c2.51-.04,3.54-1.62,3.54-3.5,0-1.33-.23-2.15-.53-2.82l1.33-.34c.29.65.65,1.79.65,3.41,0,3.14-2.08,5.01-5.16,5.01s-5.48-1.81-5.48-4.78c0-3.35,2.91-4.21,4.78-4.21.38,0,.65.02.86.06v7.16Zm-1.33-5.43c-1.16-.02-2.99.48-2.99,2.57,0,1.89,1.71,2.7,2.99,2.84v-5.41Z"></path><path class="cls-4" d="m205.71,355.83c.34-.57.72-1.54.72-2.46,0-1.33-.65-1.96-1.52-1.96s-1.35.53-1.85,1.87c-.67,1.85-1.66,2.72-2.88,2.72-1.64,0-2.99-1.35-2.99-3.52,0-1.03.27-1.94.63-2.48l1.35.44c-.25.4-.61,1.14-.61,2.08,0,1.1.63,1.68,1.39,1.68.84,0,1.22-.59,1.75-1.92.65-1.75,1.54-2.67,3.05-2.67,1.81,0,3.07,1.41,3.07,3.79,0,1.12-.29,2.15-.72,2.86l-1.39-.44Z"></path></g><g><path class="cls-4" d="m328.89,446.43c-.15-.88-.27-2.04-.27-3.52,0-1.81.42-3.14,1.18-3.98.67-.76,1.71-1.24,2.97-1.24s2.29.38,3.03,1.09c1.03.99,1.56,2.55,1.56,4.34,0,.55-.02,1.05-.13,1.47h5.69v1.83h-14.02Zm6.84-1.83c.11-.4.15-.91.15-1.52,0-2.21-1.09-3.56-3.01-3.56s-2.8,1.35-2.8,3.35c0,.8.06,1.41.15,1.73h5.52Z"></path><path class="cls-4" d="m335.9,435.63c-1.2,0-2.23.02-3.18.08v-1.62l2.02-.08v-.06c-1.37-.46-2.23-1.6-2.23-2.84,0-.19.02-.34.04-.51h1.75c-.04.19-.04.38-.04.63,0,1.31.97,2.23,2.36,2.49.25.04.57.06.86.06h5.43v1.85h-7.01Z"></path><path class="cls-4" d="m337.74,419.71c3.77,0,5.41,2.63,5.41,5.07,0,2.74-2.02,4.89-5.24,4.89-3.39,0-5.39-2.25-5.39-5.05s2.13-4.91,5.22-4.91Zm.11,8.06c2.23,0,3.92-1.26,3.92-3.07s-1.66-3.1-3.96-3.1c-1.73,0-3.9.86-3.9,3.05s2.02,3.12,3.94,3.12Z"></path><path class="cls-4" d="m341.42,408.65c2.36,0,3.77.48,4.67,1.45.91,1.01,1.22,2.44,1.22,3.73s-.29,2.57-.84,3.39l-1.43-.46c.44-.67.82-1.73.82-2.99,0-1.9-.99-3.29-3.58-3.29h-1.12v.04c.95.55,1.71,1.66,1.71,3.24,0,2.53-2.15,4.34-4.97,4.34-3.45,0-5.39-2.25-5.39-4.61,0-1.77.91-2.72,1.75-3.18v-.04l-1.54-.06v-1.64c.72.06,1.56.08,2.78.08h5.92Zm-4.67,1.85c-.32,0-.59.02-.82.1-1.09.34-1.98,1.22-1.98,2.59,0,1.77,1.5,3.03,3.85,3.03,2,0,3.66-1.03,3.66-3.01,0-1.16-.72-2.19-1.9-2.57-.32-.1-.67-.15-.99-.15h-1.83Z"></path><path class="cls-4" d="m335.9,405.7c-1.2,0-2.23.02-3.18.08v-1.62l2.02-.08v-.06c-1.37-.46-2.23-1.6-2.23-2.84,0-.19.02-.34.04-.51h1.75c-.04.19-.04.38-.04.63,0,1.31.97,2.23,2.36,2.49.25.04.57.06.86.06h5.43v1.85h-7.01Z"></path><path class="cls-4" d="m338.16,397.97c2.51-.04,3.54-1.62,3.54-3.5,0-1.33-.23-2.15-.53-2.82l1.33-.34c.29.65.65,1.79.65,3.41,0,3.14-2.08,5.01-5.16,5.01s-5.48-1.81-5.48-4.78c0-3.35,2.91-4.21,4.78-4.21.38,0,.65.02.86.06v7.16Zm-1.33-5.43c-1.16-.02-2.99.48-2.99,2.57,0,1.89,1.71,2.7,2.99,2.84v-5.41Z"></path><path class="cls-4" d="m341.04,388.71c.34-.57.72-1.54.72-2.46,0-1.33-.65-1.96-1.52-1.96s-1.35.53-1.85,1.87c-.67,1.85-1.66,2.72-2.88,2.72-1.64,0-2.99-1.35-2.99-3.52,0-1.03.27-1.94.63-2.48l1.35.44c-.25.4-.61,1.14-.61,2.08,0,1.1.63,1.68,1.39,1.68.84,0,1.22-.59,1.75-1.92.65-1.75,1.54-2.67,3.05-2.67,1.81,0,3.07,1.41,3.07,3.79,0,1.12-.29,2.15-.72,2.86l-1.39-.44Z"></path><path class="cls-4" d="m341.04,380.37c.34-.57.72-1.54.72-2.46,0-1.33-.65-1.96-1.52-1.96s-1.35.53-1.85,1.87c-.67,1.85-1.66,2.72-2.88,2.72-1.64,0-2.99-1.35-2.99-3.52,0-1.03.27-1.94.63-2.48l1.35.44c-.25.4-.61,1.14-.61,2.08,0,1.1.63,1.68,1.39,1.68.84,0,1.22-.59,1.75-1.92.65-1.75,1.54-2.67,3.05-2.67,1.81,0,3.07,1.41,3.07,3.79,0,1.12-.29,2.15-.72,2.86l-1.39-.44Z"></path><path class="cls-4" d="m329.86,369.71c.63,0,1.14.44,1.14,1.18,0,.67-.51,1.12-1.14,1.12s-1.16-.46-1.16-1.16.51-1.14,1.16-1.14Zm13.06,2.06h-10.19v-1.85h10.19v1.85Z"></path><path class="cls-4" d="m337.74,357.63c3.77,0,5.41,2.63,5.41,5.07,0,2.74-2.02,4.89-5.24,4.89-3.39,0-5.39-2.25-5.39-5.05s2.13-4.91,5.22-4.91Zm.11,8.06c2.23,0,3.92-1.26,3.92-3.07s-1.66-3.1-3.96-3.1c-1.73,0-3.9.86-3.9,3.05s2.02,3.12,3.94,3.12Z"></path><path class="cls-4" d="m335.48,355.29c-1.07,0-1.92.02-2.76.08v-1.64l1.68-.11v-.04c-.95-.5-1.9-1.68-1.9-3.37,0-1.41.84-3.6,4.34-3.6h6.06v1.85h-5.88c-1.64,0-3.01.61-3.01,2.36,0,1.2.86,2.15,1.9,2.48.23.08.55.13.86.13h6.13v1.85h-7.43Z"></path><path class="cls-4" d="m335.9,339.13c-1.2,0-2.23.02-3.18.08v-1.62l2.02-.08v-.06c-1.37-.46-2.23-1.6-2.23-2.84,0-.19.02-.34.04-.5h1.75c-.04.19-.04.38-.04.63,0,1.31.97,2.23,2.36,2.49.25.04.57.06.86.06h5.43v1.85h-7.01Z"></path><path class="cls-4" d="m340.47,325.19c.88,0,1.75-.04,2.44-.15v1.66l-1.28.15v.06c.8.57,1.52,1.66,1.52,3.12,0,2.06-1.45,3.12-2.93,3.12-2.46,0-3.81-2.19-3.79-6.13h-.21c-.82,0-2.36.23-2.34,2.32,0,.97.27,1.96.76,2.67l-1.24.42c-.53-.84-.88-2.08-.88-3.37,0-3.12,2.13-3.87,4.15-3.87h3.81Zm-2.76,1.79c-.04,2.02.32,4.32,2.3,4.32,1.22,0,1.77-.8,1.77-1.73,0-1.35-.84-2.21-1.71-2.51-.21-.06-.42-.08-.59-.08h-1.77Z"></path><path class="cls-4" d="m330.28,320.05h2.44v-2.65h1.41v2.65h5.5c1.26,0,1.98-.36,1.98-1.39,0-.5-.04-.8-.13-1.07l1.41-.08c.13.36.25.93.25,1.64,0,.86-.29,1.56-.78,2-.57.5-1.47.72-2.67.72h-5.56v1.58h-1.41v-1.58h-1.9l-.55-1.81Z"></path><path class="cls-4" d="m338.16,314.39c2.51-.04,3.54-1.62,3.54-3.5,0-1.33-.23-2.15-.53-2.82l1.33-.34c.29.65.65,1.79.65,3.41,0,3.14-2.08,5.01-5.16,5.01s-5.48-1.81-5.48-4.78c0-3.35,2.91-4.21,4.78-4.21.38,0,.65.02.86.06v7.16Zm-1.33-5.43c-1.16-.02-2.99.48-2.99,2.57,0,1.89,1.71,2.7,2.99,2.84v-5.41Z"></path><path class="cls-4" d="m341.04,305.12c.34-.57.72-1.54.72-2.46,0-1.33-.65-1.96-1.52-1.96s-1.35.53-1.85,1.87c-.67,1.85-1.66,2.72-2.88,2.72-1.64,0-2.99-1.35-2.99-3.52,0-1.03.27-1.94.63-2.48l1.35.44c-.25.4-.61,1.14-.61,2.08,0,1.1.63,1.68,1.39,1.68.84,0,1.22-.59,1.75-1.92.65-1.75,1.54-2.67,3.05-2.67,1.81,0,3.07,1.41,3.07,3.79,0,1.12-.29,2.15-.72,2.86l-1.39-.44Z"></path></g><g><path class="cls-4" d="m619.79,383.97c-.17-.93-.29-2.27-.29-3.52,0-1.96.38-3.24,1.16-4.11.63-.7,1.6-1.12,2.72-1.12,1.85,0,3.09,1.18,3.6,2.65h.06c.38-1.07,1.39-1.73,2.86-2.06,1.98-.46,3.35-.8,3.9-1.1v1.9c-.42.23-1.62.55-3.39.93-1.96.42-2.7,1.2-2.76,2.86v1.73h6.15v1.83h-14Zm6.46-1.83v-1.87c0-1.96-1.07-3.2-2.7-3.2-1.83,0-2.63,1.33-2.63,3.26,0,.88.06,1.5.15,1.81h5.18Z"></path><path class="cls-4" d="m629.03,371.59c2.51-.04,3.54-1.62,3.54-3.5,0-1.33-.23-2.15-.53-2.82l1.33-.34c.29.65.65,1.79.65,3.41,0,3.14-2.08,5.01-5.16,5.01s-5.47-1.81-5.47-4.78c0-3.35,2.91-4.21,4.78-4.21.38,0,.65.02.86.06v7.16Zm-1.33-5.43c-1.16-.02-2.99.48-2.99,2.57,0,1.9,1.71,2.7,2.99,2.84v-5.41Z"></path><path class="cls-4" d="m621.16,359.84h2.44v-2.65h1.41v2.65h5.5c1.26,0,1.98-.36,1.98-1.39,0-.5-.04-.8-.13-1.07l1.41-.08c.13.36.25.93.25,1.64,0,.86-.29,1.56-.78,2-.57.5-1.47.72-2.67.72h-5.56v1.58h-1.41v-1.58h-1.9l-.55-1.81Z"></path><path class="cls-4" d="m629.03,354.19c2.51-.04,3.54-1.62,3.54-3.5,0-1.33-.23-2.15-.53-2.82l1.33-.34c.29.65.65,1.79.65,3.41,0,3.14-2.08,5.01-5.16,5.01s-5.47-1.81-5.47-4.78c0-3.35,2.91-4.21,4.78-4.21.38,0,.65.02.86.06v7.16Zm-1.33-5.43c-1.16-.02-2.99.48-2.99,2.57,0,1.89,1.71,2.7,2.99,2.84v-5.41Z"></path><path class="cls-4" d="m626.36,344.67c-1.07,0-1.92.02-2.76.08v-1.64l1.68-.1v-.04c-.95-.5-1.9-1.68-1.9-3.37,0-1.41.84-3.6,4.34-3.6h6.06v1.85h-5.88c-1.64,0-3.01.61-3.01,2.36,0,1.2.86,2.15,1.89,2.48.23.08.55.13.86.13h6.13v1.85h-7.43Z"></path><path class="cls-4" d="m621.16,330.82h2.44v-2.65h1.41v2.65h5.5c1.26,0,1.98-.36,1.98-1.39,0-.5-.04-.8-.13-1.07l1.41-.08c.13.36.25.93.25,1.64,0,.86-.29,1.56-.78,2-.57.5-1.47.72-2.67.72h-5.56v1.58h-1.41v-1.58h-1.9l-.55-1.81Z"></path><path class="cls-4" d="m620.74,324.01c.63,0,1.14.44,1.14,1.18,0,.67-.51,1.12-1.14,1.12s-1.16-.46-1.16-1.16.51-1.14,1.16-1.14Zm13.06,2.06h-10.19v-1.85h10.19v1.85Z"></path><path class="cls-4" d="m628.61,311.93c3.77,0,5.41,2.63,5.41,5.07,0,2.74-2.02,4.89-5.24,4.89-3.39,0-5.39-2.25-5.39-5.05s2.13-4.91,5.22-4.91Zm.1,8.06c2.23,0,3.92-1.26,3.92-3.07s-1.66-3.1-3.96-3.1c-1.73,0-3.9.86-3.9,3.05s2.02,3.12,3.94,3.12Z"></path><path class="cls-4" d="m626.36,309.59c-1.07,0-1.92.02-2.76.08v-1.64l1.68-.11v-.04c-.95-.5-1.9-1.68-1.9-3.37,0-1.41.84-3.6,4.34-3.6h6.06v1.85h-5.88c-1.64,0-3.01.61-3.01,2.36,0,1.2.86,2.15,1.89,2.48.23.08.55.13.86.13h6.13v1.85h-7.43Z"></path><path class="cls-4" d="m626.78,293.43c-1.2,0-2.23.02-3.18.08v-1.62l2.02-.08v-.06c-1.37-.46-2.23-1.6-2.23-2.84,0-.19.02-.34.04-.5h1.75c-.04.19-.04.38-.04.63,0,1.31.97,2.23,2.36,2.49.25.04.57.06.86.06h5.43v1.85h-7.01Z"></path><path class="cls-4" d="m631.35,279.47c.88,0,1.75-.04,2.44-.15v1.66l-1.28.15v.06c.8.57,1.52,1.66,1.52,3.12,0,2.06-1.45,3.12-2.93,3.12-2.46,0-3.81-2.19-3.79-6.13h-.21c-.82,0-2.36.23-2.34,2.32,0,.97.27,1.96.76,2.67l-1.24.42c-.53-.84-.88-2.08-.88-3.37,0-3.12,2.13-3.87,4.15-3.87h3.81Zm-2.76,1.79c-.04,2.02.32,4.32,2.29,4.32,1.22,0,1.77-.8,1.77-1.73,0-1.35-.84-2.21-1.71-2.51-.21-.06-.42-.08-.59-.08h-1.77Z"></path><path class="cls-4" d="m621.16,274.33h2.44v-2.65h1.41v2.65h5.5c1.26,0,1.98-.36,1.98-1.39,0-.5-.04-.8-.13-1.07l1.41-.08c.13.36.25.93.25,1.64,0,.86-.29,1.56-.78,2-.57.5-1.47.72-2.67.72h-5.56v1.58h-1.41v-1.58h-1.9l-.55-1.81Z"></path><path class="cls-4" d="m629.03,268.67c2.51-.04,3.54-1.62,3.54-3.5,0-1.33-.23-2.15-.53-2.82l1.33-.34c.29.65.65,1.79.65,3.41,0,3.14-2.08,5.01-5.16,5.01s-5.47-1.81-5.47-4.78c0-3.35,2.91-4.21,4.78-4.21.38,0,.65.02.86.06v7.16Zm-1.33-5.43c-1.16-.02-2.99.48-2.99,2.57,0,1.9,1.71,2.7,2.99,2.84v-5.41Z"></path><path class="cls-4" d="m631.92,259.4c.34-.57.72-1.54.72-2.46,0-1.33-.65-1.96-1.52-1.96s-1.35.53-1.85,1.87c-.67,1.85-1.66,2.72-2.88,2.72-1.64,0-2.99-1.35-2.99-3.52,0-1.03.27-1.94.63-2.48l1.35.44c-.25.4-.61,1.14-.61,2.08,0,1.1.63,1.68,1.39,1.68.84,0,1.22-.59,1.75-1.92.65-1.75,1.54-2.67,3.05-2.67,1.81,0,3.07,1.41,3.07,3.79,0,1.12-.29,2.15-.72,2.86l-1.39-.44Z"></path></g><g><path class="cls-4" d="m763.55,367.27v4.32h-1.56v-10.51h1.56v4.34h12.63v1.85h-12.63Z"></path><path class="cls-4" d="m761.23,359.71v-1.85h6.38v-.04c-.53-.29-1.01-.76-1.33-1.33-.32-.55-.51-1.2-.51-1.9,0-1.37.84-3.56,4.34-3.56h6.06v1.85h-5.85c-1.64,0-3.01.61-3.01,2.36,0,1.2.84,2.13,1.83,2.48.27.11.55.13.88.13h6.15v1.85h-14.95Z"></path><path class="cls-4" d="m769.17,348.02c-1.2,0-2.23.02-3.18.08v-1.62l2.02-.08v-.06c-1.37-.46-2.23-1.6-2.23-2.84,0-.19.02-.34.04-.5h1.75c-.04.19-.04.38-.04.63,0,1.31.97,2.23,2.36,2.49.25.04.57.06.86.06h5.43v1.85h-7.01Z"></path><path class="cls-4" d="m771,332.1c3.77,0,5.41,2.63,5.41,5.07,0,2.74-2.02,4.89-5.24,4.89-3.39,0-5.39-2.25-5.39-5.05s2.13-4.91,5.22-4.91Zm.1,8.06c2.23,0,3.92-1.26,3.92-3.07s-1.66-3.1-3.96-3.1c-1.73,0-3.9.86-3.9,3.05s2.02,3.12,3.94,3.12Z"></path><path class="cls-4" d="m773.38,321.24c1.07,0,2-.02,2.8-.08v1.64l-1.66.11v.04c.82.46,1.89,1.56,1.89,3.37,0,1.6-.91,3.52-4.46,3.52h-5.96v-1.85h5.62c1.94,0,3.26-.61,3.26-2.27,0-1.24-.86-2.11-1.71-2.44-.25-.11-.59-.17-.95-.17h-6.23v-1.85h7.39Z"></path><path class="cls-4" d="m774.69,309.44c2.36,0,3.77.48,4.67,1.45.91,1.01,1.22,2.44,1.22,3.73s-.29,2.57-.84,3.39l-1.43-.46c.44-.67.82-1.73.82-2.99,0-1.9-.99-3.29-3.58-3.29h-1.12v.04c.95.55,1.71,1.66,1.71,3.24,0,2.53-2.15,4.34-4.97,4.34-3.45,0-5.39-2.25-5.39-4.61,0-1.77.91-2.72,1.75-3.18v-.04l-1.54-.06v-1.64c.72.06,1.56.08,2.78.08h5.92Zm-4.67,1.85c-.32,0-.59.02-.82.1-1.09.34-1.98,1.22-1.98,2.59,0,1.77,1.5,3.03,3.85,3.03,2,0,3.66-1.03,3.66-3.01,0-1.16-.72-2.19-1.89-2.57-.32-.1-.67-.15-.99-.15h-1.83Z"></path><path class="cls-4" d="m761.23,306.39v-1.85h6.38v-.04c-.53-.29-1.01-.76-1.33-1.33-.32-.55-.51-1.2-.51-1.9,0-1.37.84-3.56,4.34-3.56h6.06v1.85h-5.85c-1.64,0-3.01.61-3.01,2.36,0,1.2.84,2.13,1.83,2.48.27.11.55.13.88.13h6.15v1.85h-14.95Z"></path><path class="cls-4" d="m769.32,294.7c-1.31,0-2.36.04-3.33.08v-1.64l1.75-.11v-.04c-1.24-.74-1.96-1.96-1.96-3.62,0-2.49,2.08-4.34,5.16-4.34,3.66,0,5.47,2.25,5.47,4.65,0,1.35-.59,2.53-1.6,3.14v.04h5.54v1.83h-11.03Zm2.72-1.83c.27,0,.53-.02.76-.08,1.29-.34,2.17-1.45,2.17-2.78,0-1.96-1.6-3.1-3.94-3.1-2.02,0-3.77,1.07-3.77,3.03,0,1.26.88,2.46,2.27,2.8.23.06.51.13.74.13h1.77Z"></path><path class="cls-4" d="m773.38,274.19c1.07,0,2-.02,2.8-.08v1.64l-1.66.11v.04c.82.46,1.89,1.56,1.89,3.37,0,1.6-.91,3.52-4.46,3.52h-5.96v-1.85h5.62c1.94,0,3.26-.61,3.26-2.27,0-1.24-.86-2.11-1.71-2.44-.25-.11-.59-.17-.95-.17h-6.23v-1.85h7.39Z"></path><path class="cls-4" d="m763.55,268.88h2.44v-2.65h1.41v2.65h5.5c1.26,0,1.98-.36,1.98-1.39,0-.5-.04-.8-.13-1.07l1.41-.08c.13.36.25.93.25,1.64,0,.86-.29,1.56-.78,2-.57.5-1.47.72-2.67.72h-5.56v1.58h-1.41v-1.58h-1.9l-.55-1.81Z"></path><path class="cls-4" d="m769.17,259.68c-1.2,0-2.23.02-3.18.08v-1.62l2.02-.08v-.06c-1.37-.46-2.23-1.6-2.23-2.84,0-.19.02-.34.04-.5h1.75c-.04.19-.04.38-.04.63,0,1.31.97,2.23,2.36,2.49.25.04.57.06.86.06h5.43v1.85h-7.01Z"></path><path class="cls-4" d="m773.74,245.72c.88,0,1.75-.04,2.44-.15v1.66l-1.28.15v.06c.8.57,1.52,1.66,1.52,3.12,0,2.06-1.45,3.12-2.93,3.12-2.46,0-3.81-2.19-3.79-6.13h-.21c-.82,0-2.36.23-2.34,2.32,0,.97.27,1.96.76,2.67l-1.24.42c-.53-.84-.88-2.08-.88-3.37,0-3.12,2.13-3.87,4.15-3.87h3.81Zm-2.76,1.79c-.04,2.02.32,4.32,2.29,4.32,1.22,0,1.77-.8,1.77-1.73,0-1.35-.84-2.21-1.71-2.51-.21-.06-.42-.08-.59-.08h-1.77Z"></path><path class="cls-4" d="m763.55,240.56h2.44v-2.65h1.41v2.65h5.5c1.26,0,1.98-.36,1.98-1.39,0-.5-.04-.8-.13-1.07l1.41-.08c.13.36.25.93.25,1.64,0,.86-.29,1.56-.78,2-.57.5-1.47.72-2.67.72h-5.56v1.58h-1.41v-1.58h-1.9l-.55-1.81Z"></path><path class="cls-4" d="m771.42,234.89c2.51-.04,3.54-1.62,3.54-3.5,0-1.33-.23-2.15-.53-2.82l1.33-.34c.29.65.65,1.79.65,3.41,0,3.14-2.08,5.01-5.16,5.01s-5.47-1.81-5.47-4.78c0-3.35,2.91-4.21,4.78-4.21.38,0,.65.02.86.06v7.16Zm-1.33-5.43c-1.16-.02-2.99.48-2.99,2.57,0,1.9,1.71,2.7,2.99,2.84v-5.41Z"></path><path class="cls-4" d="m774.31,225.63c.34-.57.72-1.54.72-2.46,0-1.33-.65-1.96-1.52-1.96s-1.35.53-1.85,1.87c-.67,1.85-1.66,2.72-2.88,2.72-1.64,0-2.99-1.35-2.99-3.52,0-1.03.27-1.94.63-2.48l1.35.44c-.25.4-.61,1.14-.61,2.08,0,1.1.63,1.68,1.39,1.68.84,0,1.22-.59,1.75-1.92.65-1.75,1.54-2.67,3.05-2.67,1.81,0,3.07,1.41,3.07,3.79,0,1.12-.29,2.15-.72,2.86l-1.39-.44Z"></path></g><g><path class="cls-4" d="m472.2,419.75c-.15-.88-.27-2.04-.27-3.52,0-1.81.42-3.14,1.18-3.98.67-.76,1.71-1.24,2.97-1.24s2.29.38,3.03,1.09c1.03.99,1.56,2.55,1.56,4.34,0,.55-.02,1.05-.13,1.47h5.69v1.83h-14.02Zm6.84-1.83c.11-.4.15-.91.15-1.52,0-2.21-1.09-3.56-3.01-3.56s-2.8,1.35-2.8,3.35c0,.8.06,1.41.15,1.73h5.52Z"></path><path class="cls-4" d="m481.47,408.1c2.51-.04,3.54-1.62,3.54-3.5,0-1.33-.23-2.15-.53-2.82l1.33-.34c.29.65.65,1.79.65,3.41,0,3.14-2.08,5.01-5.16,5.01s-5.48-1.81-5.48-4.78c0-3.35,2.91-4.21,4.78-4.21.38,0,.65.02.86.06v7.16Zm-1.33-5.43c-1.16-.02-2.99.48-2.99,2.57,0,1.9,1.71,2.7,2.99,2.84v-5.41Z"></path><path class="cls-4" d="m479.22,398.58c-1.2,0-2.23.02-3.18.08v-1.62l2.02-.08v-.06c-1.37-.46-2.23-1.6-2.23-2.84,0-.19.02-.34.04-.51h1.75c-.04.19-.04.38-.04.63,0,1.31.97,2.23,2.36,2.49.25.04.57.06.86.06h5.43v1.85h-7.01Z"></path><path class="cls-4" d="m484.35,391.95c.34-.57.72-1.54.72-2.46,0-1.33-.65-1.96-1.52-1.96s-1.35.53-1.85,1.87c-.67,1.85-1.66,2.72-2.88,2.72-1.64,0-2.99-1.35-2.99-3.52,0-1.03.27-1.94.63-2.48l1.35.44c-.25.4-.61,1.14-.61,2.08,0,1.1.63,1.68,1.39,1.68.84,0,1.22-.59,1.75-1.92.65-1.75,1.54-2.67,3.05-2.67,1.81,0,3.07,1.41,3.07,3.79,0,1.12-.29,2.15-.72,2.86l-1.39-.44Z"></path><path class="cls-4" d="m473.17,381.29c.63,0,1.14.44,1.14,1.18,0,.67-.51,1.12-1.14,1.12s-1.16-.46-1.16-1.16.51-1.14,1.16-1.14Zm13.06,2.06h-10.19v-1.85h10.19v1.85Z"></path><path class="cls-4" d="m484.35,378.68c.34-.57.72-1.54.72-2.46,0-1.33-.65-1.96-1.52-1.96s-1.35.53-1.85,1.87c-.67,1.85-1.66,2.72-2.88,2.72-1.64,0-2.99-1.35-2.99-3.52,0-1.03.27-1.94.63-2.48l1.35.44c-.25.4-.61,1.14-.61,2.08,0,1.1.63,1.68,1.39,1.68.84,0,1.22-.59,1.75-1.92.65-1.75,1.54-2.67,3.05-2.67,1.81,0,3.07,1.41,3.07,3.79,0,1.12-.29,2.15-.72,2.86l-1.39-.44Z"></path><path class="cls-4" d="m473.59,367.86h2.44v-2.65h1.41v2.65h5.5c1.26,0,1.98-.36,1.98-1.39,0-.5-.04-.8-.13-1.07l1.41-.08c.13.36.25.93.25,1.64,0,.86-.29,1.56-.78,2-.57.5-1.47.72-2.67.72h-5.56v1.58h-1.41v-1.58h-1.9l-.55-1.81Z"></path><path class="cls-4" d="m481.47,362.19c2.51-.04,3.54-1.62,3.54-3.5,0-1.33-.23-2.15-.53-2.82l1.33-.34c.29.65.65,1.79.65,3.41,0,3.14-2.08,5.01-5.16,5.01s-5.48-1.81-5.48-4.78c0-3.35,2.91-4.21,4.78-4.21.38,0,.65.02.86.06v7.16Zm-1.33-5.43c-1.16-.02-2.99.48-2.99,2.57,0,1.89,1.71,2.7,2.99,2.84v-5.41Z"></path><path class="cls-4" d="m478.79,352.67c-1.07,0-1.92.02-2.76.08v-1.64l1.68-.1v-.04c-.95-.5-1.9-1.68-1.9-3.37,0-1.41.84-3.6,4.34-3.6h6.06v1.85h-5.88c-1.64,0-3.01.61-3.01,2.36,0,1.2.86,2.15,1.9,2.48.23.08.55.13.86.13h6.13v1.85h-7.43Z"></path><path class="cls-4" d="m485.87,333.72c.23.48.59,1.56.59,2.93,0,3.07-2.08,5.08-5.2,5.08s-5.43-2.15-5.43-5.48c0-1.09.27-2.06.55-2.57l1.41.42c-.23.44-.48,1.14-.48,2.15,0,2.34,1.75,3.6,3.85,3.6,2.36,0,3.81-1.52,3.81-3.54,0-1.05-.25-1.75-.48-2.27l1.39-.32Z"></path><path class="cls-4" d="m481.47,330.64c2.51-.04,3.54-1.62,3.54-3.5,0-1.33-.23-2.15-.53-2.82l1.33-.34c.29.65.65,1.79.65,3.41,0,3.14-2.08,5.01-5.16,5.01s-5.48-1.81-5.48-4.78c0-3.35,2.91-4.21,4.78-4.21.38,0,.65.02.86.06v7.16Zm-1.33-5.43c-1.16-.02-2.99.48-2.99,2.57,0,1.9,1.71,2.7,2.99,2.84v-5.41Z"></path><path class="cls-4" d="m479.22,316.66c-1.2,0-2.23.02-3.18.08v-1.62l2.02-.08v-.06c-1.37-.46-2.23-1.6-2.23-2.84,0-.19.02-.34.04-.5h1.75c-.04.19-.04.38-.04.63,0,1.31.97,2.23,2.36,2.49.25.04.57.06.86.06h5.43v1.85h-7.01Z"></path><path class="cls-4" d="m483.78,302.7c.88,0,1.75-.04,2.44-.15v1.66l-1.28.15v.06c.8.57,1.52,1.66,1.52,3.12,0,2.06-1.45,3.12-2.93,3.12-2.46,0-3.81-2.19-3.79-6.13h-.21c-.82,0-2.36.23-2.34,2.32,0,.97.27,1.96.76,2.67l-1.24.42c-.53-.84-.88-2.08-.88-3.37,0-3.12,2.13-3.87,4.15-3.87h3.81Zm-2.76,1.79c-.04,2.02.32,4.32,2.3,4.32,1.22,0,1.77-.8,1.77-1.73,0-1.35-.84-2.21-1.71-2.51-.21-.06-.42-.08-.59-.08h-1.77Z"></path><path class="cls-4" d="m473.59,297.54h2.44v-2.65h1.41v2.65h5.5c1.26,0,1.98-.36,1.98-1.39,0-.5-.04-.8-.13-1.07l1.41-.08c.13.36.25.93.25,1.64,0,.86-.29,1.56-.78,2-.57.5-1.47.72-2.67.72h-5.56v1.58h-1.41v-1.58h-1.9l-.55-1.81Z"></path><path class="cls-4" d="m481.47,291.89c2.51-.04,3.54-1.62,3.54-3.5,0-1.33-.23-2.15-.53-2.82l1.33-.34c.29.65.65,1.79.65,3.41,0,3.14-2.08,5.01-5.16,5.01s-5.48-1.81-5.48-4.78c0-3.35,2.91-4.21,4.78-4.21.38,0,.65.02.86.06v7.16Zm-1.33-5.43c-1.16-.02-2.99.48-2.99,2.57,0,1.89,1.71,2.7,2.99,2.84v-5.41Z"></path><path class="cls-4" d="m484.35,282.63c.34-.57.72-1.54.72-2.46,0-1.33-.65-1.96-1.52-1.96s-1.35.53-1.85,1.87c-.67,1.85-1.66,2.72-2.88,2.72-1.64,0-2.99-1.35-2.99-3.52,0-1.03.27-1.94.63-2.48l1.35.44c-.25.4-.61,1.14-.61,2.08,0,1.1.63,1.68,1.39,1.68.84,0,1.22-.59,1.75-1.92.65-1.75,1.54-2.67,3.05-2.67,1.81,0,3.07,1.41,3.07,3.79,0,1.12-.29,2.15-.72,2.86l-1.39-.44Z"></path></g><g><path class="cls-4" d="m921.05,350.97c.34.65.67,2.02.67,3.75,0,4-2.53,6.99-7.2,6.99s-7.45-3.01-7.45-7.41c0-1.75.38-2.88.63-3.37l1.5.46c-.34.67-.59,1.66-.59,2.84,0,3.33,2.13,5.54,5.85,5.54,3.5,0,5.71-2,5.71-5.43,0-1.14-.23-2.27-.59-3.01l1.47-.36Z"></path><path class="cls-4" d="m919.05,341.68c.88,0,1.75-.04,2.44-.15v1.66l-1.28.15v.06c.8.57,1.52,1.66,1.52,3.12,0,2.06-1.45,3.12-2.93,3.12-2.46,0-3.81-2.19-3.79-6.13h-.21c-.82,0-2.36.23-2.34,2.32,0,.97.27,1.96.76,2.67l-1.24.42c-.53-.84-.88-2.08-.88-3.37,0-3.12,2.13-3.87,4.15-3.87h3.81Zm-2.76,1.79c-.04,2.02.32,4.32,2.29,4.32,1.22,0,1.77-.8,1.77-1.73,0-1.35-.84-2.21-1.71-2.51-.21-.06-.42-.08-.59-.08h-1.77Z"></path><path class="cls-4" d="m914.48,338.69c-1.2,0-2.23.02-3.18.08v-1.62l2.02-.08v-.06c-1.37-.46-2.23-1.6-2.23-2.84,0-.19.02-.34.04-.5h1.75c-.04.19-.04.38-.04.63,0,1.31.97,2.23,2.36,2.49.25.04.57.06.86.06h5.43v1.85h-7.01Z"></path><path class="cls-4" d="m916.74,330.96c2.51-.04,3.54-1.62,3.54-3.5,0-1.33-.23-2.15-.53-2.82l1.33-.34c.29.65.65,1.79.65,3.41,0,3.14-2.08,5.01-5.16,5.01s-5.47-1.81-5.47-4.78c0-3.35,2.91-4.21,4.78-4.21.38,0,.65.02.86.06v7.16Zm-1.33-5.43c-1.16-.02-2.99.48-2.99,2.57,0,1.9,1.71,2.7,2.99,2.84v-5.41Z"></path><path class="cls-4" d="m916.74,320.41c2.51-.04,3.54-1.62,3.54-3.5,0-1.33-.23-2.15-.53-2.82l1.33-.34c.29.65.65,1.79.65,3.41,0,3.14-2.08,5.01-5.16,5.01s-5.47-1.81-5.47-4.78c0-3.35,2.91-4.21,4.78-4.21.38,0,.65.02.86.06v7.16Zm-1.33-5.43c-1.16-.02-2.99.48-2.99,2.57,0,1.9,1.71,2.7,2.99,2.84v-5.41Z"></path><path class="cls-4" d="m914.48,310.89c-1.2,0-2.23.02-3.18.08v-1.62l2.02-.08v-.06c-1.37-.46-2.23-1.6-2.23-2.84,0-.19.02-.34.04-.51h1.75c-.04.19-.04.38-.04.63,0,1.31.97,2.23,2.36,2.49.25.04.57.06.86.06h5.43v1.85h-7.01Z"></path><path class="cls-4" d="m914.63,299.54c-1.31,0-2.36.04-3.33.08v-1.64l1.75-.11v-.04c-1.24-.74-1.96-1.96-1.96-3.62,0-2.49,2.08-4.34,5.16-4.34,3.66,0,5.47,2.25,5.47,4.65,0,1.35-.59,2.53-1.6,3.14v.04h5.54v1.83h-11.03Zm2.72-1.83c.27,0,.53-.02.76-.08,1.29-.34,2.17-1.45,2.17-2.78,0-1.96-1.6-3.1-3.94-3.1-2.02,0-3.77,1.07-3.77,3.03,0,1.26.88,2.46,2.27,2.8.23.06.51.13.74.13h1.77Z"></path><path class="cls-4" d="m906.54,287.56v-1.85h14.95v1.85h-14.95Z"></path><path class="cls-4" d="m919.05,275.43c.88,0,1.75-.04,2.44-.15v1.66l-1.28.15v.06c.8.57,1.52,1.66,1.52,3.12,0,2.06-1.45,3.12-2.93,3.12-2.46,0-3.81-2.19-3.79-6.13h-.21c-.82,0-2.36.23-2.34,2.32,0,.97.27,1.96.76,2.67l-1.24.42c-.53-.84-.88-2.08-.88-3.37,0-3.12,2.13-3.87,4.15-3.87h3.81Zm-2.76,1.79c-.04,2.02.32,4.32,2.29,4.32,1.22,0,1.77-.8,1.77-1.73,0-1.35-.84-2.21-1.71-2.51-.21-.06-.42-.08-.59-.08h-1.77Z"></path><path class="cls-4" d="m921.14,265.17c.23.48.59,1.56.59,2.93,0,3.07-2.08,5.08-5.2,5.08s-5.43-2.15-5.43-5.48c0-1.09.27-2.06.55-2.57l1.41.42c-.23.44-.48,1.14-.48,2.15,0,2.34,1.75,3.6,3.85,3.6,2.36,0,3.81-1.52,3.81-3.54,0-1.05-.25-1.75-.48-2.27l1.39-.32Z"></path><path class="cls-4" d="m916.74,262.09c2.51-.04,3.54-1.62,3.54-3.5,0-1.33-.23-2.15-.53-2.82l1.33-.34c.29.65.65,1.79.65,3.41,0,3.14-2.08,5.01-5.16,5.01s-5.47-1.81-5.47-4.78c0-3.35,2.91-4.21,4.78-4.21.38,0,.65.02.86.06v7.16Zm-1.33-5.43c-1.16-.02-2.99.48-2.99,2.57,0,1.9,1.71,2.7,2.99,2.84v-5.41Z"></path><path class="cls-4" d="m914.06,252.58c-1.07,0-1.92.04-2.76.08v-1.62l1.66-.08v-.06c-.97-.57-1.87-1.52-1.87-3.22,0-1.37.84-2.42,2.04-2.86v-.04c-.59-.32-1.01-.74-1.33-1.16-.46-.61-.72-1.26-.72-2.23,0-1.37.88-3.37,4.42-3.37h5.98v1.81h-5.75c-1.98,0-3.14.74-3.14,2.21,0,1.07.78,1.87,1.66,2.21.27.08.59.15.93.15h6.3v1.81h-6.11c-1.62,0-2.78.72-2.78,2.13,0,1.14.93,2,1.85,2.3.25.1.59.15.91.15h6.13v1.81h-7.43Z"></path><path class="cls-4" d="m916.74,233.98c2.51-.04,3.54-1.62,3.54-3.5,0-1.33-.23-2.15-.53-2.82l1.33-.34c.29.65.65,1.79.65,3.41,0,3.14-2.08,5.01-5.16,5.01s-5.47-1.81-5.47-4.78c0-3.35,2.91-4.21,4.78-4.21.38,0,.65.02.86.06v7.16Zm-1.33-5.43c-1.16-.02-2.99.48-2.99,2.57,0,1.89,1.71,2.7,2.99,2.84v-5.41Z"></path><path class="cls-4" d="m914.06,224.46c-1.07,0-1.92.02-2.76.08v-1.64l1.68-.1v-.04c-.95-.5-1.9-1.68-1.9-3.37,0-1.41.84-3.6,4.34-3.6h6.06v1.85h-5.88c-1.64,0-3.01.61-3.01,2.36,0,1.2.86,2.15,1.89,2.48.23.08.55.13.86.13h6.13v1.85h-7.43Z"></path><path class="cls-4" d="m908.86,210.63h2.44v-2.65h1.41v2.65h5.5c1.26,0,1.98-.36,1.98-1.39,0-.5-.04-.8-.13-1.07l1.41-.08c.13.36.25.93.25,1.64,0,.86-.29,1.56-.78,2-.57.5-1.47.72-2.67.72h-5.56v1.58h-1.41v-1.58h-1.9l-.55-1.81Z"></path><path class="cls-4" d="m914.48,201.42c-1.2,0-2.23.02-3.18.08v-1.62l2.02-.08v-.06c-1.37-.46-2.23-1.6-2.23-2.84,0-.19.02-.34.04-.5h1.75c-.04.19-.04.38-.04.63,0,1.31.97,2.23,2.36,2.49.25.04.57.06.86.06h5.43v1.85h-7.01Z"></path><path class="cls-4" d="m919.05,187.46c.88,0,1.75-.04,2.44-.15v1.66l-1.28.15v.06c.8.57,1.52,1.66,1.52,3.12,0,2.06-1.45,3.12-2.93,3.12-2.46,0-3.81-2.19-3.79-6.13h-.21c-.82,0-2.36.23-2.34,2.32,0,.97.27,1.96.76,2.67l-1.24.42c-.53-.84-.88-2.08-.88-3.37,0-3.12,2.13-3.87,4.15-3.87h3.81Zm-2.76,1.79c-.04,2.02.32,4.32,2.29,4.32,1.22,0,1.77-.8,1.77-1.73,0-1.35-.84-2.21-1.71-2.51-.21-.06-.42-.08-.59-.08h-1.77Z"></path><path class="cls-4" d="m908.86,182.3h2.44v-2.65h1.41v2.65h5.5c1.26,0,1.98-.36,1.98-1.39,0-.5-.04-.8-.13-1.07l1.41-.08c.13.36.25.93.25,1.64,0,.86-.29,1.56-.78,2-.57.5-1.47.72-2.67.72h-5.56v1.58h-1.41v-1.58h-1.9l-.55-1.81Z"></path><path class="cls-4" d="m916.74,176.64c2.51-.04,3.54-1.62,3.54-3.5,0-1.33-.23-2.15-.53-2.82l1.33-.34c.29.65.65,1.79.65,3.41,0,3.14-2.08,5.01-5.16,5.01s-5.47-1.81-5.47-4.78c0-3.35,2.91-4.21,4.78-4.21.38,0,.65.02.86.06v7.16Zm-1.33-5.43c-1.16-.02-2.99.48-2.99,2.57,0,1.9,1.71,2.7,2.99,2.84v-5.41Z"></path><path class="cls-4" d="m919.62,167.37c.34-.57.72-1.54.72-2.46,0-1.33-.65-1.96-1.52-1.96s-1.35.53-1.85,1.87c-.67,1.85-1.66,2.72-2.88,2.72-1.64,0-2.99-1.35-2.99-3.52,0-1.03.27-1.94.63-2.48l1.35.44c-.25.4-.61,1.14-.61,2.08,0,1.1.63,1.68,1.39,1.68.84,0,1.22-.59,1.75-1.92.65-1.75,1.54-2.67,3.05-2.67,1.81,0,3.07,1.41,3.07,3.79,0,1.12-.29,2.15-.72,2.86l-1.39-.44Z"></path></g></g></g></svg>